<svg data-name="Layer 1" viewBox="0 0 256 256" xmlns="http://www.w3.org/2000/svg"><path d="M194.05 219.12a22.06 22.06 0 0 0-10.77-5.35v-12.05h6.84a3.51 3.51 0 0 0 3.51-3.51v-20.68a3.51 3.51 0 0 0-3.51-3.51h-7.33V83.21c0-39.47-25.6-71.58-57.07-71.58C95.12 11.63 70.14 42 68.78 80a3.3 3.3 0 0 0-.13.64v59.2C67.5 145 56.74 192.94 56.74 204c0 13.28 6.77 23.69 15.42 23.69S87.59 217.24 87.59 204c0-11-10.76-59-11.92-64.12v-22.3c9.71 22.17 28.5 37.24 50.05 37.24s40.34-15.07 50.05-37.24V174h-6.34a3.51 3.51 0 0 0-3.51 3.51v20.68a3.51 3.51 0 0 0 3.51 3.51h6.84v14.55a2.45 2.45 0 0 0 .08.39 3.12 3.12 0 0 0-.08.52 3.56 3.56 0 0 0 3.72 3.29 14.89 14.89 0 0 1 9.25 3.76 9.15 9.15 0 0 1 3 7 6.14 6.14 0 0 1-6.13 6.13 5.72 5.72 0 0 1-2.83-.75v-9.22a3.51 3.51 0 1 0-7 0v11.11a3.89 3.89 0 0 0 .15.74 4 4 0 0 0 .15.6 3.55 3.55 0 0 0 .32.47 3.74 3.74 0 0 0 .48.63l.07.09a13.1 13.1 0 0 0 21.8-9.84 16.24 16.24 0 0 0-5.2-12.05Zm-121.89 1.51c-4 0-8.4-6.84-8.4-16.67 0-6.5 4.64-29.77 8.4-47.35 3.76 17.58 8.41 40.85 8.41 47.35 0 9.83-4.43 16.67-8.41 16.67Zm53.56-202c20.44 0 37.07 24.41 37.07 54.42s-16.63 54.43-37.07 54.43-37.07-24.4-37.07-54.41 16.63-54.42 37.07-54.42Zm0 129.11c-27.6 0-50-29-50-64.55 0-16.6 4.92-31.7 12.93-43.15a79.32 79.32 0 0 0-7 33c0 33.88 19.77 61.45 44.08 61.45s44.08-27.49 44.08-61.42a79.32 79.32 0 0 0-7-33c8 11.45 12.93 26.55 12.93 43.15.03 35.58-22.42 64.54-50.02 64.54Zm47.22 46.94V181h13.67v13.7h-3.33v-3a3.51 3.51 0 1 0-7 0v3Z" fill="#aa4465" class="fill-787878"></path><path d="M170 205.06a3.51 3.51 0 0 0-3.51 3.51v6.75a3.51 3.51 0 0 0 7 0v-6.75a3.51 3.51 0 0 0-3.49-3.51Z" fill="#aa4465" class="fill-787878"></path></svg>